<?xml version="1.0" encoding="UTF-8"?>
<svg xmlns="http://www.w3.org/2000/svg" onmouseup="{ if(window.parent.document.onmouseup) window.parent.document.onmouseup(arguments[0]);}" width="36" viewBox="0 0 36 36" id="S_RadialGradient_18_N_2x" height="36" data-name="S_RadialGradient_18_N@2x"><defs><style>
      .cls-1, .cls-2, .cls-3, .cls-4, .cls-5, .cls-6, .cls-7, .cls-8, .fill {
        fill: #6e6e6e;
      }

      .cls-1 {
        opacity: 0.07;
      }

      .cls-2 {
        opacity: 0.18;
      }

      .cls-3 {
        opacity: 0.28;
      }

      .cls-4 {
        opacity: 0.38;
      }

      .cls-5 {
        opacity: 0.5;
      }

      .cls-6 {
        opacity: 0.6;
      }

      .cls-7 {
        opacity: 0.75;
      }

      .cls-8 {
        opacity: 0.9;
      }

      
    </style></defs><path data-cppathid="10000" d="M18,12.356A5.644,5.644,0,1,0,23.644,18,5.644,5.644,0,0,0,18,12.356Z" class="cls-1"/><path data-cppathid="10001" d="M18,10.669A7.331,7.331,0,1,0,25.331,18,7.331,7.331,0,0,0,18,10.669Zm0,12.975A5.644,5.644,0,1,1,23.644,18,5.644,5.644,0,0,1,18,23.644Z" class="cls-2"/><path data-cppathid="10002" d="M18,8.909A9.091,9.091,0,1,0,27.091,18,9.091,9.091,0,0,0,18,8.909Zm0,16.422A7.331,7.331,0,1,1,25.331,18,7.331,7.331,0,0,1,18,25.331Z" class="cls-3"/><path data-cppathid="10003" d="M18,7.091A10.909,10.909,0,1,0,28.909,18,10.909,10.909,0,0,0,18,7.091Zm0,20A9.091,9.091,0,1,1,27.091,18,9.091,9.091,0,0,1,18,27.091Z" class="cls-4"/><path data-cppathid="10004" d="M18,5.273A12.727,12.727,0,1,0,30.727,18,12.727,12.727,0,0,0,18,5.273Zm0,23.636A10.909,10.909,0,1,1,28.909,18,10.909,10.909,0,0,1,18,28.909Z" class="cls-5"/><path data-cppathid="10005" d="M14.1,32H21.9A14.551,14.551,0,0,0,32,21.9V14.1A14.551,14.551,0,0,0,21.9,4H14.1A14.551,14.551,0,0,0,4,14.1V21.9A14.551,14.551,0,0,0,14.1,32ZM18,5.273A12.727,12.727,0,1,1,5.273,18,12.727,12.727,0,0,1,18,5.273Z" class="cls-6"/><path data-cppathid="10006" d="M14.1,4H9.56A16.413,16.413,0,0,0,4,9.56V14.1A14.551,14.551,0,0,1,14.1,4Z" class="cls-7"/><path data-cppathid="10007" d="M21.9,32h4.536A16.4,16.4,0,0,0,32,26.439V21.9A14.551,14.551,0,0,1,21.9,32Z" class="cls-7"/><path data-cppathid="10008" d="M4,21.9v4.535A16.4,16.4,0,0,0,9.561,32H14.1A14.551,14.551,0,0,1,4,21.9Z" class="cls-7"/><path data-cppathid="10009" d="M32,14.1V9.56A16.413,16.413,0,0,0,26.44,4H21.9A14.551,14.551,0,0,1,32,14.1Z" class="cls-7"/><path data-cppathid="10010" d="M26.439,32H29.6A18.172,18.172,0,0,0,32,29.6V26.439A16.4,16.4,0,0,1,26.439,32Z" class="cls-8"/><path data-cppathid="10011" d="M9.56,4H6.4A18.172,18.172,0,0,0,4,6.4V9.56A16.413,16.413,0,0,1,9.56,4Z" class="cls-8"/><path data-cppathid="10012" d="M4,26.439V29.6A18.172,18.172,0,0,0,6.4,32H9.561A16.4,16.4,0,0,1,4,26.439Z" class="cls-8"/><path data-cppathid="10013" d="M32,9.56V6.4A18.172,18.172,0,0,0,29.6,4H26.44A16.413,16.413,0,0,1,32,9.56Z" class="cls-8"/><path data-cppathid="10014" d="M33,2H3A1,1,0,0,0,2,3V33a1,1,0,0,0,1,1H33a1,1,0,0,0,1-1V3A1,1,0,0,0,33,2ZM32,29.6A18.172,18.172,0,0,1,29.6,32H6.4A18.172,18.172,0,0,1,4,29.6V6.4A18.172,18.172,0,0,1,6.4,4H29.6A18.172,18.172,0,0,1,32,6.4Z" class="fill"/></svg>